<svg fill="none" xmlns="http://www.w3.org/2000/svg" viewBox="0 0 457 129"><path d="M28.25 19.188c18.25 0 27.625 11.812 27.625 34.687v20.813c0 21.437-8.25 33.124-24.25 34.5-.313 4.937 1.875 6.937 7.938 7.25l7.5.374-2.5 11.563C29.687 126.938 22.875 120.125 23.5 109 8.375 107.062.625 95.5.625 74.687V53.876C.625 31 10 19.187 28.25 19.187Zm14.125 57.75v-25c0-15.063-4.625-22.313-14.125-22.313s-14.125 7.25-14.125 22.313v25c0 14.812 4.625 21.937 14.125 21.937s14.125-7.125 14.125-21.938Zm52.375 32.437c-17.375 0-26.313-8-26.313-23.938V20.5h13.5v64.063c0 9.687 4.313 14.374 12.813 14.374 8.562 0 12.812-4.687 12.812-14.374V20.5h13.5v64.938c0 15.937-8.874 23.937-26.312 23.937ZM144.562 108h-12.937l19.687-87.5h19.376l20.187 87.5h-13.937l-4.063-17.063h-24.25L144.562 108ZM156 55.937l-5.312 25.376h20.187l-5.313-25.376c-1.624-7.874-2.812-14.624-4.25-24.062H160c-1.25 9.438-2.375 16.188-4 24.063ZM253.125 108h-48.75V20.5h13.5v76h35.25V108ZM299.5 14.625h-11.438L273.812 0h16.438l9.25 14.625Zm21 93.375H268V97.312h19.5V31.189H268V20.5h52.5v10.688h-19.438v66.124H320.5V108Zm47.062 0H354V31.75h-22.375V20.5h58.25v11.25h-22.313V108Zm43 0h-12.937l19.687-87.5h19.376l20.187 87.5h-13.937l-4.063-17.063h-24.25L410.562 108ZM422 55.937l-5.312 25.376h20.187l-5.313-25.376c-1.624-7.874-2.812-14.624-4.25-24.062H426c-1.25 9.438-2.375 16.188-4 24.063Z" fill="#000"/></svg>