<svg fill="none" xmlns="http://www.w3.org/2000/svg" viewBox="0 0 127 128"><path fill-rule="evenodd" clip-rule="evenodd" d="M63.5 127.5c35.07 0 63.5-28.43 63.5-63.5S98.57.5 63.5.5 0 28.93 0 64s28.43 63.5 63.5 63.5Z" fill="#000"/><path fill-rule="evenodd" clip-rule="evenodd" d="m42.303 101.545 6.084-6.085-4.302-4.302L38 97.242l4.303 4.303Z" fill="#fff"/><circle cx="15.212" cy="15.212" r="15.212" transform="matrix(-1 0 0 1 68.67 71.121)" fill="#fff"/><path fill-rule="evenodd" clip-rule="evenodd" d="m90.461 65.037-4.868-4.868 3.442-3.442 4.868 4.867-3.442 3.443Z" fill="#EB6A0C"/><circle cx="81.537" cy="52.867" r="12.169" fill="#EB6A0C"/><path fill-rule="evenodd" clip-rule="evenodd" d="m44.351 42.726 3.245-3.245-2.294-2.295-3.245 3.245 2.294 2.295Z" fill="#fff"/><circle cx="8.113" cy="8.113" r="8.113" transform="matrix(-1 0 0 1 58.414 26.5)" fill="#fff"/></svg>